<svg width="253" height="252" viewBox="0 0 253 252" fill="none" xmlns="http://www.w3.org/2000/svg">
<path d="M163.296 126.392L125.561 194.276L150.871 127.373L151.263 126.326L163.296 126.392Z" fill="#FF496C"/>
<path d="M133.801 130.905L133.735 131.493L125.561 194.276L117.386 131.493L117.255 130.905H125.561H133.801Z" fill="#FF496C"/>
<path d="M100.186 127.373L125.561 194.276L87.8252 126.392L99.7933 126.326L100.186 127.373Z" fill="#FF496C"/>
<path d="M87.2367 126.719L87.5637 127.242L66.636 123.71L59.8345 107.034L79.1926 110.565H79.3234L87.2367 126.719Z" fill="#FF496C"/>
<path d="M108.753 110.958L116.928 131.558L100.448 127.242L108.753 110.958Z" fill="#FF496C"/>
<path d="M142.368 110.958L150.674 127.242L134.193 131.558L142.368 110.958Z" fill="#FF496C"/>
<path d="M191.286 107.034L184.419 123.71L163.557 127.242L163.884 126.719L171.797 110.565H171.928L191.286 107.034Z" fill="#FF496C"/>
<path d="M154.533 70.7373L171.733 109.388H142.826L146.685 70.6719H154.533V70.7373Z" fill="#FF496C"/>
<path d="M108.295 109.388L125.561 70.6719L142.826 109.388H142.368H125.561H108.753H108.295Z" fill="#FF496C"/>
<path d="M108.295 109.388H79.3887L96.5887 70.7373V70.6719H104.437L108.295 109.388Z" fill="#FF496C"/>
<path d="M163.558 127.242L184.42 123.71L125.561 194.276L163.296 126.392L163.885 126.719L163.558 127.242Z" fill="#FD405F"/>
<path d="M150.871 127.373L125.561 194.276L133.736 131.493L134.194 131.558L150.674 127.242L150.871 127.373Z" fill="#FD405F"/>
<path d="M117.386 131.493L125.56 194.276L100.186 127.373L100.447 127.242L116.928 131.558L117.386 131.493Z" fill="#FD405F"/>
<path d="M87.8251 126.392L125.56 194.276L66.6357 123.71L87.5635 127.242L87.2365 126.719L87.8251 126.392Z" fill="#FD405F"/>
<path d="M108.295 109.388H108.753V110.958L100.447 127.242L100.186 127.373L99.7931 126.326L87.8251 126.392L87.2365 126.719L79.3232 110.565H79.1924L79.3886 109.388H108.295Z" fill="#FD405F"/>
<path d="M133.802 130.904H125.562H117.256L117.387 131.493L116.929 131.558L108.754 110.958V109.388H125.562H142.369V110.958L134.194 131.558L133.736 131.493L133.802 130.904Z" fill="#FD405F"/>
<path d="M171.732 109.388L171.929 110.565H171.798L163.885 126.719L163.296 126.392L151.262 126.326L150.87 127.373L150.674 127.242L142.368 110.958V109.388H142.826H171.732Z" fill="#FD405F"/>
<path d="M159.633 70.6719L192.268 104.745L191.287 107.034L171.928 110.565L171.732 109.388L154.532 70.7373V70.6719H159.633Z" fill="#FD405F"/>
<path d="M146.685 70.6719L142.826 109.388L125.561 70.6719H146.685Z" fill="#FD405F"/>
<path d="M125.561 70.6719L108.296 109.388L104.438 70.6719H125.561Z" fill="#FD405F"/>
<path d="M96.5889 70.6719V70.7373L79.3889 109.388L79.1927 110.565L59.8345 107.034L58.8535 104.745L91.4877 70.6719H96.5889Z" fill="#FD405F"/>
<path d="M252.108 125.672C252.108 142.088 248.969 157.784 243.213 172.106L224.509 175.834L212.868 158.438C216.727 148.235 218.82 137.248 218.82 125.672C218.82 77.7349 182.261 38.2991 135.501 33.7866V33.6558L148.123 16.5866L138.64 0.69458C202.274 6.77671 252.108 60.4041 252.108 125.672Z" fill="#96EFFF"/>
<path d="M221.959 182.701L240.205 179.104C220.128 221.744 176.768 251.239 126.541 251.239C76.1186 251.239 32.6936 221.548 12.6814 178.711L22.8183 162.558L43.4844 166.024C58.4608 196.761 89.9833 217.951 126.476 217.951C163.361 217.951 195.211 196.304 209.991 164.977L210.122 165.043L221.959 182.701Z" fill="#6CE0F9"/>
<path d="M128.373 33.3942C127.784 33.3942 127.196 33.3942 126.542 33.3942C75.5958 33.3942 34.2635 74.7265 34.2635 125.672C34.2635 137.575 36.5525 148.955 40.6727 159.418L40.5419 159.484L19.6141 155.952L9.73884 171.714C4.0491 157.522 0.975342 141.957 0.975342 125.672C0.975342 56.3493 57.2187 0.105957 126.542 0.105957C128.046 0.105957 129.55 0.105957 131.054 0.171356L140.799 16.5212L128.373 33.3942Z" fill="#40DAF4"/>
</svg>
